<svg width="60" height="60" viewBox="0 0 60 62" fill="none" xmlns="http://www.w3.org/2000/svg">
<path d="M37.6927 0.3125C35.8281 0.32225 34.0097 1.04375 32.6666 2.52087C32.6471 2.54037 32.6861 2.57938 32.6666 2.59644C29.6685 5.6165 28.5058 8.61706 27.4869 11.2812C27.0482 12.4342 26.6094 13.5189 26.0391 14.6328C25.4761 13.9688 24.7761 13.4345 23.9873 13.0663C23.1984 12.6982 22.3393 12.505 21.4688 12.5C19.8561 12.5115 18.3128 13.1572 17.1725 14.2975C16.0322 15.4378 15.3865 16.9811 15.375 18.5938C15.375 21.9258 18.1367 24.6875 21.4688 24.6875C23.2774 24.6875 24.8398 23.8295 25.9635 22.5547L26.1146 22.7083L3.87244 44.8724L3.1875 45.6354V55.3074L0.75 57.8229L4.17713 61.25L6.69263 58.8125H16.3646L17.1276 58.1276L57.495 17.6797L57.573 17.6041C58.9227 16.2483 59.6805 14.4131 59.6805 12.5C59.6805 10.5869 58.9227 8.75167 57.573 7.39588L54.5992 4.427C53.9322 3.75238 53.1382 3.21657 52.263 2.8505C51.3878 2.48443 50.4487 2.29535 49.5 2.29419C47.7572 2.29419 46.0631 2.96937 44.7006 4.19544L42.9504 2.52087C42.2618 1.82521 41.4427 1.2721 40.5402 0.89317C39.6376 0.514242 38.6692 0.316924 37.6903 0.3125H37.6927ZM37.7707 5.1875C38.3704 5.19725 39.0163 5.44344 39.5209 5.95044L41.1979 7.625L26.2682 22.4791C29.571 18.974 31.0286 15.7175 32.0572 13.0338C33.1054 10.2916 33.7611 8.28069 36.0938 5.95044L36.2473 5.79688C36.4424 5.59163 36.6795 5.43093 36.9425 5.32576C37.2054 5.22059 37.4879 5.17343 37.7707 5.1875ZM49.5 7.09119C50.0704 7.09119 50.6334 7.31056 51.177 7.85412L54.1459 10.823C55.233 11.9101 55.233 13.0899 54.1459 14.1746L51.9375 16.3098L45.6902 10.0625L47.5963 8.15881L47.823 7.85412C48.3666 7.31056 48.9296 7.09119 49.5 7.09119ZM42.1875 13.5676L48.4348 19.8125L30 38.2473L23.7527 32L42.1875 13.5676ZM21.4688 17.375C22.1756 17.375 22.6875 17.8869 22.6875 18.5938C22.6875 19.3006 22.1756 19.8125 21.4688 19.8125C20.7619 19.8125 20.25 19.3006 20.25 18.5938C20.25 17.8869 20.7619 17.375 21.4688 17.375ZM20.25 35.5051L26.4973 41.75L14.3098 53.9375H8.0625V47.6902L20.25 35.5051Z" fill="white"/>
</svg>
