<svg width="60" height="60" viewBox="0 0 47 78" fill="none" xmlns="http://www.w3.org/2000/svg">
<path d="M3.65522 78H42.6442C44.6595 78 46.2995 76.3596 46.2995 74.3438V3.65625C46.2995 1.64044 44.6595 0 42.6442 0H3.65522C1.63998 0 0 1.64044 0 3.65625V74.3438C0 76.3596 1.63998 78 3.65522 78ZM2.43681 3.65625C2.43681 3.33302 2.56518 3.02302 2.79368 2.79446C3.02217 2.5659 3.33208 2.4375 3.65522 2.4375H42.6442C42.9674 2.4375 43.2773 2.5659 43.5058 2.79446C43.7343 3.02302 43.8627 3.33302 43.8627 3.65625V74.3438C43.8627 74.667 43.7343 74.977 43.5058 75.2055C43.2773 75.4341 42.9674 75.5625 42.6442 75.5625H3.65522C3.33208 75.5625 3.02217 75.4341 2.79368 75.2055C2.56518 74.977 2.43681 74.667 2.43681 74.3438V3.65625Z" fill="white"/>
<path d="M6.09194 65.8125H40.2073C40.5305 65.8125 40.8404 65.6841 41.0689 65.4555C41.2974 65.227 41.4257 64.917 41.4257 64.5938V13.4062C41.4257 13.083 41.2974 12.773 41.0689 12.5445C40.8404 12.3159 40.5305 12.1875 40.2073 12.1875H6.09194C5.7688 12.1875 5.45889 12.3159 5.2304 12.5445C5.0019 12.773 4.87354 13.083 4.87354 13.4062V64.5938C4.87354 64.917 5.0019 65.227 5.2304 65.4555C5.45889 65.6841 5.7688 65.8125 6.09194 65.8125ZM7.31035 14.625H38.9889V63.375H7.31035V14.625Z" fill="white"/>
<path d="M24.368 73.125C25.7138 73.125 26.8048 72.0337 26.8048 70.6875C26.8048 69.3413 25.7138 68.25 24.368 68.25C23.0222 68.25 21.9312 69.3413 21.9312 70.6875C21.9312 72.0337 23.0222 73.125 24.368 73.125Z" fill="white"/>
<path d="M18.276 9.75H28.0233C28.3464 9.75 28.6563 9.6216 28.8848 9.39304C29.1133 9.16448 29.2417 8.85448 29.2417 8.53125C29.2417 8.20802 29.1133 7.89802 28.8848 7.66946C28.6563 7.4409 28.3464 7.3125 28.0233 7.3125H18.276C17.9529 7.3125 17.643 7.4409 17.4145 7.66946C17.186 7.89802 17.0576 8.20802 17.0576 8.53125C17.0576 8.85448 17.186 9.16448 17.4145 9.39304C17.643 9.6216 17.9529 9.75 18.276 9.75Z" fill="white"/>
</svg>
