<svg width="60" height="60" viewBox="0 0 78 68" fill="none" xmlns="http://www.w3.org/2000/svg">
<path d="M33.5911 0.0962564C27.7712 0.0962564 23.0527 4.81473 23.0527 10.6346C23.5515 17.743 28.3462 19.7675 33.6442 23.7477C37.5838 26.2404 37.1013 29.0188 37.8955 33.4878C34.3887 34.376 30.1854 35.4299 27.6897 33.3081L21.7419 29.0768C21.7334 29.0697 21.7239 29.0638 21.7153 29.0568C19.8974 27.566 17.57 26.6684 15.0357 26.6684C10.5804 26.6684 6.77697 29.4335 5.23575 33.3413C5.03282 34.1262 4.90321 34.1218 4.21785 34.1198C1.88715 34.1198 0 36.0069 0 38.3379C0 40.6687 1.88714 42.5559 4.21804 42.5559C6.23226 42.3316 5.512 42.0903 6.65301 43.5938C8.57896 46.1166 11.6174 47.7453 15.0358 47.7453C19.3352 47.7453 23.0304 45.17 24.6694 41.4781C26.5312 42.5445 28.1417 42.9454 30.2646 43.2344H78C72.0852 32.4543 57.3952 34.1199 47.7355 33.1951C45.7518 28.2676 45.3045 21.759 40.7033 18.452H40.6567C42.7896 16.5234 44.1295 13.7366 44.1295 10.6346C44.1295 4.81467 39.411 0.0961914 33.5911 0.0961914V0.0962564ZM33.5911 5.36541C36.5011 5.36541 38.8602 7.72465 38.8602 10.6345C38.8602 13.5445 36.5009 15.9037 33.5911 15.9037C30.6811 15.9037 28.3219 13.5444 28.3219 10.6345C28.3219 7.72465 30.6812 5.36541 33.5911 5.36541ZM15.0358 31.9375C17.9457 31.9375 20.305 34.2968 20.305 37.2067C20.305 40.1166 17.9457 42.4758 15.0358 42.4758C12.1259 42.4758 9.76664 40.1165 9.76664 37.2067C9.76664 34.2968 12.1259 31.9375 15.0358 31.9375ZM43.1648 34.1462C44.8183 34.1462 46.1586 35.4867 46.1586 37.1401C46.1586 38.7936 44.8183 40.134 43.1648 40.134C41.5113 40.134 40.1708 38.7937 40.1708 37.1401C40.171 35.4867 41.5113 34.1462 43.1648 34.1462ZM43.391 48.5767C47.4529 56.7864 50.2639 66.8622 60.5159 67.9037L53.2906 48.5766H43.391V48.5767ZM11.696 54.4114V59.1218H21.9616V54.4114H11.696ZM30.1714 54.4114V59.1218H41.5017L39.3328 54.4114H30.1714ZM62.3787 54.4114L63.7759 59.1218H74.0415V54.4114H62.3787Z" fill="white"/>
</svg>
